<svg width="100%" height="100%" viewBox="0 0 424 424" version="1.1" xmlns="http://www.w3.org/2000/svg" xmlns:xlink="http://www.w3.org/1999/xlink" xml:space="preserve" xmlns:serif="http://www.serif.com/" style="fill-rule:evenodd;clip-rule:evenodd;stroke-linejoin:round;stroke-miterlimit:2;">
    <g transform="matrix(1,0,0,1,-0.920414,-0.00438244)">
        <g transform="matrix(1,0,0,1,-299.46,-61)">
            <path d="M306.27,221.65L386.39,221.65C386.39,221.65 402.59,173.26 461.61,146.95C520.63,120.64 579.41,129.63 579.41,129.63L615.41,82.03C615.41,82.03 535.26,41.23 441.63,73.3C331,113.71 306.27,221.65 306.27,221.65" style="fill:rgb(244,110,45);fill-rule:nonzero;"/>
        </g>
        <g transform="matrix(1,0,0,1,-299.46,-61)">
            <path d="M302.73,240.5C307.84,237.42 354.98,237.6 382.67,241.75C410.75,243.75 440.62,262.94 450.58,274.09C467.81,284.09 467.05,243.86 492.86,243.86C511.86,243.86 516.86,276.4 533.7,277.1C557.7,278.19 554.11,255.34 569.57,255.41C589.38,255.41 597.64,281.24 605.72,281.24C613.8,281.24 622.55,263.85 631.02,263.85C642.69,263.85 649.77,279.49 663.58,285.45C665.018,285.983 666.496,286.401 668,286.7C666.707,286.952 665.431,287.286 664.18,287.7C650.41,293.7 644.47,311.5 632.83,311.5C623.08,312.91 616.83,293.88 606.34,293.7C592.97,293.62 591.06,320.82 569.78,320.82C554.05,319.99 553.23,294.82 533.94,296.03C508.94,296.97 513.02,331.64 492.56,332.2C466.45,332.2 474.47,300.2 451.01,300.2C444.86,300.58 434.13,327.45 382.66,335.43C380.66,335.43 354.97,341.96 309.38,337.16C294.31,289.02 302.72,240.52 302.72,240.52" style="fill:rgb(244,110,45);fill-rule:nonzero;"/>
        </g>
        <g transform="matrix(1,0,0,1,-299.46,-61)">
            <path d="M724.12,286.7L665.66,286.7C665.37,288.91 661.42,302.38 658.28,310.96C651.33,329.96 617.54,381.1 567.82,398.3C506.76,419.43 450,415.62 450,415.62L414,463.23C414,463.23 494.15,504 587.78,472C723.16,415.09 724.12,289.21 724.12,289.21" style="fill:rgb(244,110,45);fill-rule:nonzero;"/>
        </g>
    </g>
</svg>